<?xml version="1.0" encoding="UTF-8"?>
<svg id="Capa_3" data-name="Capa 3" xmlns="http://www.w3.org/2000/svg" viewBox="0 0 5000 5000">
  <defs>
    <style>
      .cls-1 {
        fill-rule: evenodd;
      }
    </style>
  </defs>
  <path class="cls-1" d="M3468.31,2971.77c-52.92-28.98-312.74-169.15-361.42-188.87-48.79-19.85-84.31-30.12-122.33,22.39-37.84,52.42-145.72,169.97-178.33,204.72-62.05,65.82-182.83-20.85-250.42-58.46-77.9-43.24-179.74-109.97-289.98-216.03-154.76-148.71-256.19-329.13-285.71-384.1-44.92-84.21,112.56-182.46,160.84-272.45,2.68-5.04,5.54-10.18,8.49-15.72,19.3-35.29,11.58-67.09-.91-94.62-12.49-27.3-110.33-296.43-151.17-405.99-51.74-138.95-281.08-127.87-366.93-40.7-51.42,52.01-195.46,177.06-205.4,442.15-9.9,264.86,173.47,528.32,199.09,565.15,25.62,36.93,350.08,611.44,889.57,847.73,319.05,139.68,573.66,269.09,880.98,60.23,60.64-41.2,112.51-91.53,133.5-143.81,49.6-124,53.6-231.88,40.97-254.82-12.63-22.89-48.06-37.84-100.84-66.82Z"/>
  <path class="cls-1" d="M3979.09,1014.53c-392.45-392.86-914.32-609.31-1470.39-609.44-1145.84,0-2078.42,932.08-2078.83,2077.92-.14,366.29,95.57,723.86,277.49,1038.96l-294.84,1076.94,1101.87-289.07c303.65,165.57,645.51,252.87,993.4,253.01h.91c.09,0-.14,0,0,0,1145.66,0,2078.29-932.35,2078.79-2078.15.14-555.21-215.81-1077.34-608.4-1470.16h0ZM2508.7,4211.86h-.68c-310.01-.14-614.16-83.44-879.39-240.79l-63.09-37.47-653.95,171.52,174.46-637.38-41.11-65.27c-172.93-275.04-264.17-592.91-264.04-919.18.36-952.43,775.37-1727.17,1728.44-1727.17,461.45.09,895.38,179.97,1221.52,506.51,326.28,326.41,505.79,760.47,505.65,1221.92-.4,952.43-775.51,1727.3-1727.8,1727.3Z"/>
</svg>